<svg width="20" height="20" viewBox="0 0 20 20" fill="none" xmlns="http://www.w3.org/2000/svg">
<mask id="mask0_1498_624" style="mask-type:alpha" maskUnits="userSpaceOnUse" x="0" y="0" width="20" height="20">
<rect width="20" height="20" fill="#D9D9D9"/>
</mask>
<g mask="url(#mask0_1498_624)">
<path d="M10.0001 18.3333C8.86119 18.3333 7.7848 18.1145 6.77091 17.677C5.75703 17.2395 4.87161 16.6423 4.11466 15.8854C3.35772 15.1284 2.7605 14.243 2.323 13.2291C1.8855 12.2152 1.66675 11.1388 1.66675 9.99996C1.66675 8.84718 1.8855 7.76732 2.323 6.76038C2.7605 5.75343 3.35772 4.87149 4.11466 4.11454C4.87161 3.3576 5.75703 2.76038 6.77091 2.32288C7.7848 1.88538 8.86119 1.66663 10.0001 1.66663C11.1529 1.66663 12.2327 1.88538 13.2397 2.32288C14.2466 2.76038 15.1286 3.3576 15.8855 4.11454C16.6424 4.87149 17.2397 5.75343 17.6772 6.76038C18.1147 7.76732 18.3334 8.84718 18.3334 9.99996C18.3334 11.1388 18.1147 12.2152 17.6772 13.2291C17.2397 14.243 16.6424 15.1284 15.8855 15.8854C15.1286 16.6423 14.2466 17.2395 13.2397 17.677C12.2327 18.1145 11.1529 18.3333 10.0001 18.3333ZM10.0001 16.625C10.3612 16.125 10.6737 15.6041 10.9376 15.0625C11.2015 14.5208 11.4167 13.9444 11.5834 13.3333H8.41675C8.58342 13.9444 8.79869 14.5208 9.06258 15.0625C9.32647 15.6041 9.63897 16.125 10.0001 16.625ZM7.83341 16.2916C7.58341 15.8333 7.36466 15.3576 7.17716 14.8645C6.98966 14.3715 6.83341 13.8611 6.70841 13.3333H4.25008C4.65286 14.0277 5.15633 14.6319 5.7605 15.1458C6.36466 15.6597 7.05564 16.0416 7.83341 16.2916ZM12.1667 16.2916C12.9445 16.0416 13.6355 15.6597 14.2397 15.1458C14.8438 14.6319 15.3473 14.0277 15.7501 13.3333H13.2917C13.1667 13.8611 13.0105 14.3715 12.823 14.8645C12.6355 15.3576 12.4167 15.8333 12.1667 16.2916ZM3.54175 11.6666H6.37508C6.33341 11.3888 6.30216 11.1145 6.28133 10.8437C6.2605 10.5729 6.25008 10.2916 6.25008 9.99996C6.25008 9.70829 6.2605 9.42704 6.28133 9.15621C6.30216 8.88538 6.33341 8.61107 6.37508 8.33329H3.54175C3.4723 8.61107 3.42022 8.88538 3.3855 9.15621C3.35078 9.42704 3.33341 9.70829 3.33341 9.99996C3.33341 10.2916 3.35078 10.5729 3.3855 10.8437C3.42022 11.1145 3.4723 11.3888 3.54175 11.6666ZM8.04175 11.6666H11.9584C12.0001 11.3888 12.0313 11.1145 12.0522 10.8437C12.073 10.5729 12.0834 10.2916 12.0834 9.99996C12.0834 9.70829 12.073 9.42704 12.0522 9.15621C12.0313 8.88538 12.0001 8.61107 11.9584 8.33329H8.04175C8.00008 8.61107 7.96883 8.88538 7.948 9.15621C7.92716 9.42704 7.91675 9.70829 7.91675 9.99996C7.91675 10.2916 7.92716 10.5729 7.948 10.8437C7.96883 11.1145 8.00008 11.3888 8.04175 11.6666ZM13.6251 11.6666H16.4584C16.5279 11.3888 16.5799 11.1145 16.6147 10.8437C16.6494 10.5729 16.6667 10.2916 16.6667 9.99996C16.6667 9.70829 16.6494 9.42704 16.6147 9.15621C16.5799 8.88538 16.5279 8.61107 16.4584 8.33329H13.6251C13.6667 8.61107 13.698 8.88538 13.7188 9.15621C13.7397 9.42704 13.7501 9.70829 13.7501 9.99996C13.7501 10.2916 13.7397 10.5729 13.7188 10.8437C13.698 11.1145 13.6667 11.3888 13.6251 11.6666ZM13.2917 6.66663H15.7501C15.3473 5.97218 14.8438 5.36801 14.2397 4.85413C13.6355 4.34024 12.9445 3.95829 12.1667 3.70829C12.4167 4.16663 12.6355 4.64232 12.823 5.13538C13.0105 5.62843 13.1667 6.13885 13.2917 6.66663ZM8.41675 6.66663H11.5834C11.4167 6.05551 11.2015 5.47913 10.9376 4.93746C10.6737 4.39579 10.3612 3.87496 10.0001 3.37496C9.63897 3.87496 9.32647 4.39579 9.06258 4.93746C8.79869 5.47913 8.58342 6.05551 8.41675 6.66663ZM4.25008 6.66663H6.70841C6.83341 6.13885 6.98966 5.62843 7.17716 5.13538C7.36466 4.64232 7.58341 4.16663 7.83341 3.70829C7.05564 3.95829 6.36466 4.34024 5.7605 4.85413C5.15633 5.36801 4.65286 5.97218 4.25008 6.66663Z" fill="#070707"/>
</g>
</svg>
